<svg id="Layer_1" data-name="Layer 1" xmlns="http://www.w3.org/2000/svg" viewBox="0 0 691.92 720.04"><defs><style>.cls-1{fill:#37cfe5;}.cls-2{fill:#19a1b9;}.cls-3{fill:#444647;}.cls-4{fill:#222323;}.cls-5{fill:#d7e8f7;}.cls-6{fill:#9be7f2;}.cls-7{fill:#fdffff;}.cls-8{fill:#69dbeb;}.cls-9{fill:#03626f;}.cls-10{fill:#dc4405;}.cls-11{fill:#ffd22d;}.cls-12{fill:#84bd00;}.cls-13,.cls-19{fill:#fff;}.cls-14{fill:#0492a7;}.cls-15{fill:#05c3de;}.cls-16,.cls-24{fill:#cdf3f8;}.cls-17{fill:#ffc2b0;}.cls-18{fill:#638e00;}.cls-19{opacity:0.46;}.cls-19,.cls-24{isolation:isolate;}.cls-20{fill:#513554;}.cls-21{fill:#888b8d;}.cls-22{fill:#2c4482;}.cls-23{fill:#fcfeff;}.cls-24{opacity:0.36;}.cls-25{fill:#a53304;}</style></defs><title>coding-illustration-1</title><g id="coding"><path class="cls-1" d="M237.25,384.34a3.3,3.3,0,0,1-2.5-3.94v-.06h0a3.25,3.25,0,0,1,3.83-2.51h.09v-.06a3.38,3.38,0,0,1,2.54,4h0a3.39,3.39,0,0,1-3.23,2.6h0A3,3,0,0,1,237.25,384.34Zm50.56-2.54a3.27,3.27,0,0,1,2.34-4h.15a3.24,3.24,0,0,1,3.9,2.4v.09h0a3.32,3.32,0,0,1-2.45,4h0a4.73,4.73,0,0,1-.75,0h0a3.24,3.24,0,0,1-3.23-2.54Zm-99.69-21.06h0a3.31,3.31,0,0,1-.55-4.64h0a3.28,3.28,0,0,1,4.61-.53h0a3.28,3.28,0,0,1,.57,4.6v.05h0a3.2,3.2,0,0,1-2.59,1.27h0a3.38,3.38,0,0,1-2-.73Zm148.07-.64a3.3,3.3,0,0,1,.5-4.64h0a3.29,3.29,0,0,1,4.63.44h0a3.35,3.35,0,0,1-.53,4.66h0a3.61,3.61,0,0,1-2.07.73h0a3.35,3.35,0,0,1-2.6-1.21ZM154,318.23h0a3.27,3.27,0,0,1,1.5-4.37h0a3.23,3.23,0,0,1,4.36,1.36h0l.09.17h0a3.28,3.28,0,0,1-1.5,4.38h0a3.39,3.39,0,0,1-1.43.32h0A3.32,3.32,0,0,1,154,318.23Zm216.38,1.32a3.28,3.28,0,0,1-1.55-4.37h0a3.26,3.26,0,0,1,4.32-1.58h.08a3.29,3.29,0,0,1,1.54,4.39h0a3.34,3.34,0,0,1-3,1.86h0a3.14,3.14,0,0,1-1.38-.32ZM141.86,265.2a3.24,3.24,0,0,1,3.14-3.34h.14a3.3,3.3,0,0,1,3.29,3.28h0a3.28,3.28,0,0,1-3.21,3.33h-.08A3.29,3.29,0,0,1,141.86,265.2Zm238.42-.2h.06v-.16h0c0-.11-.06-.21-.06-.32h0a3.36,3.36,0,0,1,3.34-3.33h0a3.3,3.3,0,0,1,3.29,3.28h0v0h0v.27h0V265h0a3.35,3.35,0,0,1-3.34,3.28h0A3.31,3.31,0,0,1,380.28,265ZM155.37,216.55a3.34,3.34,0,0,1-1.53-4.45h0a3.25,3.25,0,0,1,4.34-1.55h0a3.34,3.34,0,0,1,1.59,4.4h0a3.23,3.23,0,0,1-3,1.9h0a3.49,3.49,0,0,1-1.45-.36Zm213.31-2.23h0a3.27,3.27,0,0,1,1.5-4.37h0a3.29,3.29,0,0,1,4.39,1.51h0a3.29,3.29,0,0,1-1.52,4.4h0a3.54,3.54,0,0,1-1.43.31h0a3.23,3.23,0,0,1-3-1.9ZM187.22,174.05a3.28,3.28,0,0,1,.48-4.61h0a3.29,3.29,0,0,1,4.63.44h0a3.29,3.29,0,0,1-.43,4.63h0a3.53,3.53,0,0,1-2.07.74h0A3.21,3.21,0,0,1,187.22,174.05Zm149.13.11h0a3.32,3.32,0,0,1-.54-4.65h0a3.35,3.35,0,0,1,4.67-.53h0a3.33,3.33,0,0,1,.53,4.65h0a3.54,3.54,0,0,1-2.6,1.28h0a3.42,3.42,0,0,1-2.06-.75ZM234.28,149.59a3.32,3.32,0,0,1,2.45-4h0a3.39,3.39,0,0,1,4,2.49h0a3.31,3.31,0,0,1-2.44,4h0a3.67,3.67,0,0,1-.74.11h0A3.35,3.35,0,0,1,234.28,149.59Zm55.55,2.33h0a3.22,3.22,0,0,1-2.52-3.81V148h0a3.33,3.33,0,0,1,4-2.54h0a3.37,3.37,0,0,1,2.54,4h0a3.38,3.38,0,0,1-3.23,2.59h0a3.71,3.71,0,0,1-.81-.14Z" transform="translate(0.01 0)"/><path class="cls-1" d="M261.26,431.66a3.32,3.32,0,0,1,3.29-3.34h0a3.28,3.28,0,0,1,3.28,3.28h0v.06h0a3.26,3.26,0,0,1-3.24,3.28h0a3.3,3.3,0,0,1-3.33-3.27ZM212,426.74a3.33,3.33,0,0,1-2.17-4.14h0a3.39,3.39,0,0,1,4.18-2.17h0a3.32,3.32,0,0,1,2.13,4.17h0a3.27,3.27,0,0,1-3.14,2.3h0a3.08,3.08,0,0,1-1-.16Zm101-2.23a3.28,3.28,0,0,1,2.14-4.12h0a3.26,3.26,0,0,1,4.12,2.07h0a3.23,3.23,0,0,1-2,4.1h-.08a3.08,3.08,0,0,1-1,.16h0a3.3,3.3,0,0,1-3.19-2.28ZM164.49,402.65a3.36,3.36,0,0,1-.74-4.66h0a3.38,3.38,0,0,1,4.66-.74h0a3.32,3.32,0,0,1,.71,4.64h0a3.21,3.21,0,0,1-2.65,1.38h0A3.24,3.24,0,0,1,164.49,402.65Zm195.39-.95a3.32,3.32,0,0,1,.74-4.61h0a3.32,3.32,0,0,1,4.61.74h0a3.25,3.25,0,0,1-.59,4.55l-.09.06h0a3.33,3.33,0,0,1-2,.63h0A3.4,3.4,0,0,1,359.88,401.7ZM126.81,365.13v-.06h0a3.25,3.25,0,0,1,.61-4.54l.08-.06h0a3.36,3.36,0,0,1,4.66.74h0a3.3,3.3,0,0,1-.74,4.61h0a3.33,3.33,0,0,1-2,.63h0A3.34,3.34,0,0,1,126.81,365.13Zm270.69.42a3.24,3.24,0,0,1-.75-4.51l.07-.09h0a3.31,3.31,0,0,1,4.61-.75h0a3.3,3.3,0,0,1,.74,4.61h0a3.34,3.34,0,0,1-2.7,1.37h0a3.59,3.59,0,0,1-2-.63Zm-295-47.8a3.28,3.28,0,0,1,2.07-4.16h0a3.33,3.33,0,0,1,4.13,2.12h0a3.33,3.33,0,0,1-2.06,4.18h0a3.78,3.78,0,0,1-1.06.16h0a3.22,3.22,0,0,1-3.08-2.28Zm319.66,1.85a3.38,3.38,0,0,1-2.17-4.18h0a3.29,3.29,0,0,1,4.13-2.13h0a3.23,3.23,0,0,1,2.17,4,.14.14,0,0,1-.05.13h0a3.26,3.26,0,0,1-3.12,2.33h0a2.83,2.83,0,0,1-1-.16Zm-328-54.35A3.26,3.26,0,0,1,97.4,262h0a3.38,3.38,0,0,1,3.34,3.28h0a3.33,3.33,0,0,1-3.31,3.33h0a3.31,3.31,0,0,1-3.25-3.33ZM428,264.93v-.32h0v-.32h0a3.32,3.32,0,0,1,3.31-3.33h0a3.3,3.3,0,0,1,3.29,3.28h0v.37h0V265h0a3.31,3.31,0,0,1-3.34,3.28h0A3.28,3.28,0,0,1,428,265ZM104.5,216.86a3.23,3.23,0,0,1-2.15-4v-.09h0a3.26,3.26,0,0,1,4.08-2.18h0a3.37,3.37,0,0,1,2.17,4.18h0a3.32,3.32,0,0,1-3.18,2.27h0a3.26,3.26,0,0,1-1-.18Zm315.42-3a3.28,3.28,0,0,1,2-4.17h0a3.27,3.27,0,0,1,4.16,2v.09h0a3.25,3.25,0,0,1-2,4.11H424a2.14,2.14,0,0,1-1,.21h0a3.29,3.29,0,0,1-3.13-2.28ZM127.13,169.92a3.29,3.29,0,0,1-.76-4.58h0a3.32,3.32,0,0,1,4.63-.77h0a3.3,3.3,0,0,1,.74,4.61h0a3.43,3.43,0,0,1-2.7,1.37h0A3.31,3.31,0,0,1,127.13,169.92Zm269.32-1.53h0a3.25,3.25,0,0,1,.61-4.56h0l.07-.05h0a3.31,3.31,0,0,1,4.62.69h0a3.29,3.29,0,0,1-.65,4.62h0a3.33,3.33,0,0,1-2,.63h0A3.29,3.29,0,0,1,396.45,168.39ZM163.22,132.23a3.27,3.27,0,0,1,.71-4.57h0a3.23,3.23,0,0,1,4.54.59l.07.09h0a3.32,3.32,0,0,1-.67,4.65h0a3.34,3.34,0,0,1-2,.64h0A3.39,3.39,0,0,1,163.22,132.23Zm196.87.16h0a3.35,3.35,0,0,1-.74-4.6h0A3.33,3.33,0,0,1,364,127h0a3.36,3.36,0,0,1,.75,4.66h0A3.4,3.4,0,0,1,362,133h0a3.31,3.31,0,0,1-1.95-.6ZM209.21,107.45a3.25,3.25,0,0,1,2-4.09h.07a3.26,3.26,0,0,1,4.12,2v.06h0a3.27,3.27,0,0,1-2.07,4.13h0a3.52,3.52,0,0,1-1.06.22h0A3.28,3.28,0,0,1,209.21,107.45Zm105.26,1.86a3.29,3.29,0,0,1-2.14-4.13v-.05h0a3.21,3.21,0,0,1,4-2.15h.12a3.3,3.3,0,0,1,2.17,4.12h0a3.32,3.32,0,0,1-3.18,2.33h0a3.08,3.08,0,0,1-1-.16Zm-53.9-11.12a3.28,3.28,0,0,1,3.29-3.27h0a3.24,3.24,0,0,1,3.33,3.15h0v.12h0a3.3,3.3,0,0,1-3.29,3.28h0a3.25,3.25,0,0,1-3.34-3.16h0v-.11Z" transform="translate(0.01 0)"/><path class="cls-1" d="M274.78,479.09a3.36,3.36,0,0,1,3.07-3.55v.06a3.25,3.25,0,0,1,3.49,3v.13h0a3.27,3.27,0,0,1-3,3.49H278A3.27,3.27,0,0,1,274.78,479.09Zm-51-.27a3.3,3.3,0,0,1-2.65-3.84h0a3.32,3.32,0,0,1,3.87-2.65h0a3.37,3.37,0,0,1,2.65,3.87h0a3.34,3.34,0,0,1-3.29,2.69h0a2.62,2.62,0,0,1-.56,0Zm103.92-9a3.38,3.38,0,0,1,2.12-4.18h0a3.38,3.38,0,0,1,4.19,2.17h0a3.24,3.24,0,0,1-2,4.1h-.08a3.37,3.37,0,0,1-1,.16h0a3.31,3.31,0,0,1-3.17-2.28ZM171.78,462h0a3.35,3.35,0,0,1-1.59-4.39h0a3.32,3.32,0,0,1,4.4-1.59h0a3.25,3.25,0,0,1,1.64,4.29l0,.11h0a3.24,3.24,0,0,1-3,1.9h0a3.86,3.86,0,0,1-1.38-.32Zm204.93-14.39a3.29,3.29,0,0,1,1-4.54h0a3.27,3.27,0,0,1,4.53,1l0,0h0a3.27,3.27,0,0,1-1,4.51h0a3.11,3.11,0,0,1-1.8.53h0a3.28,3.28,0,0,1-2.74-1.52Zm-251-14.83a3.26,3.26,0,0,1-.52-4.59v0h0a3.33,3.33,0,0,1,4.66-.43h0a3.3,3.3,0,0,1,.51,4.63h0a3.48,3.48,0,0,1-2.6,1.22h0a3.07,3.07,0,0,1-2.06-.8ZM418.65,414a3.29,3.29,0,0,1-.21-4.65h0v-.06h0a3.34,3.34,0,0,1,4.66-.16h0a3.32,3.32,0,0,1,.17,4.71h0a3.29,3.29,0,0,1-2.43,1.06h0A3.29,3.29,0,0,1,418.65,414ZM88.23,393.12a3.28,3.28,0,0,1,.72-4.58h0a3.28,3.28,0,0,1,4.58.72h0a3.22,3.22,0,0,1-.6,4.53h0l-.09.07h0a3.21,3.21,0,0,1-2,.64h0A3.38,3.38,0,0,1,88.23,393.12Zm362.7-22.06a3.31,3.31,0,0,1-1.28-4.49h0a3.24,3.24,0,0,1,4.4-1.31h.05a3.26,3.26,0,0,1,1.39,4.4h0a.17.17,0,0,0,0,.1h0a3.42,3.42,0,0,1-2.92,1.69h0A3.6,3.6,0,0,1,450.93,371.06ZM61.83,345.43h0a3.28,3.28,0,0,1,1.81-4.26h0A3.31,3.31,0,0,1,68,343h0a3.29,3.29,0,0,1-1.83,4.28h0a3.15,3.15,0,0,1-1.21.21h0a3.26,3.26,0,0,1-3.13-2Zm409.66-24a3.29,3.29,0,0,1-2.38-4h0a3.36,3.36,0,0,1,4-2.38h0a3.27,3.27,0,0,1,2.4,3.95v.05h0a3.3,3.3,0,0,1-3.18,2.49h0a4.64,4.64,0,0,1-.83-.14ZM48.21,292.61A3.22,3.22,0,0,1,50.94,289h.13a3.22,3.22,0,0,1,3.65,2.7h0v.14h0a3.29,3.29,0,0,1-2.81,3.71h-.47A3.23,3.23,0,0,1,48.21,292.61ZM475.68,265v-.43h0v-.41h0a3.31,3.31,0,0,1,3.28-3.34h0a3.29,3.29,0,0,1,3.28,3.28h0v.47h0c0,.11.06.27.06.43h0a3.33,3.33,0,0,1-3.31,3.33h0a3.32,3.32,0,0,1-3.34-3.3h0ZM51,241.79a3.32,3.32,0,0,1-2.92-3.67h0a3.38,3.38,0,0,1,3.71-2.86h0a3.28,3.28,0,0,1,2.88,3.64h0V239h0a3.26,3.26,0,0,1-3.29,2.85Zm418-30.16a3.31,3.31,0,0,1,2.38-4h0a3.28,3.28,0,0,1,4,2.34h0a3.29,3.29,0,0,1-2.33,4h0a4,4,0,0,1-.85.11h0a3.37,3.37,0,0,1-3.25-2.49ZM63.42,189.5a3.3,3.3,0,0,1-1.86-4.27h0a3.29,3.29,0,0,1,4.28-1.86h0a3.26,3.26,0,0,1,1.88,4.21v0h0a3.21,3.21,0,0,1-3.07,2.07h0a3.24,3.24,0,0,1-1.27-.22Zm385.87-26.94a3.29,3.29,0,0,1,1.23-4.49h0a3.3,3.3,0,0,1,4.49,1.26h0a3.31,3.31,0,0,1-1.27,4.49h0a3.64,3.64,0,0,1-1.64.43h0a3.28,3.28,0,0,1-2.91-1.7ZM88.5,142a3.35,3.35,0,0,1-.74-4.65h0a3.28,3.28,0,0,1,4.57-.76h0a3.31,3.31,0,0,1,.75,4.6h0a3.29,3.29,0,0,1-2.7,1.38h0A3.23,3.23,0,0,1,88.5,142Zm329.41-22.12h0a3.27,3.27,0,0,1,.12-4.62h0a3.28,3.28,0,0,1,4.64.08h0a3.38,3.38,0,0,1-.16,4.71h0a3.26,3.26,0,0,1-2.23.91h0a3.32,3.32,0,0,1-2.43-1ZM124.64,102.22a3.23,3.23,0,0,1,.31-4.57h0a.39.39,0,0,1,.1-.08h0a3.3,3.3,0,0,1,4.64.39l0,0h0a3.33,3.33,0,0,1-.43,4.65h0a3.54,3.54,0,0,1-2.12.74h0A3.16,3.16,0,0,1,124.64,102.22ZM377,86.35h0a3.33,3.33,0,0,1-1-4.59h0a3.29,3.29,0,0,1,4.54-1h0a3.34,3.34,0,0,1,1.06,4.56h0a3.39,3.39,0,0,1-2.81,1.53h0A3.76,3.76,0,0,1,377,86.35ZM169.47,72.58a3.26,3.26,0,0,1,1.5-4.36H171a3.34,3.34,0,0,1,4.45,1.53h0a3.36,3.36,0,0,1-1.59,4.45h0a3.72,3.72,0,0,1-1.43.32h0A3.25,3.25,0,0,1,169.47,72.58ZM329,64a3.29,3.29,0,0,1-2.14-4.13v0h0a3.21,3.21,0,0,1,4-2.22H331a3.28,3.28,0,0,1,2.19,4.09h0A3.41,3.41,0,0,1,330,64.06h0A3.57,3.57,0,0,1,329,64ZM220.25,55.06a3.34,3.34,0,0,1,2.6-3.87h0a3.31,3.31,0,0,1,3.91,2.55h0v.09h0a3.38,3.38,0,0,1-2.65,3.87h-.64a3.34,3.34,0,0,1-3.18-2.65ZM277,54.21a3.19,3.19,0,0,1-3.08-3.31v-.18h0a3.21,3.21,0,0,1,3.34-3.07h.1a3.3,3.3,0,0,1,3.13,3.44h0a3.31,3.31,0,0,1-3.29,3.12H277Z" transform="translate(0.01 0)"/><path class="cls-1" d="M251.18,530a3.27,3.27,0,0,1-3.12-3.41h0a3.28,3.28,0,0,1,3.42-3.13h.07a3.24,3.24,0,0,1,3.14,3.34h0v.11h0A3.34,3.34,0,0,1,251.4,530h0A.41.41,0,0,0,251.18,530ZM301,524.39a3.34,3.34,0,0,1,2.81-3.76h0a3.31,3.31,0,0,1,3.76,2.75h0a3.39,3.39,0,0,1-2.76,3.82h-.53A3.35,3.35,0,0,1,301,524.39Zm-103-2.48a3.31,3.31,0,0,1-2.39-4h0a3.33,3.33,0,0,1,4-2.38h0a3.32,3.32,0,0,1,2.38,4h0a3.33,3.33,0,0,1-3.23,2.49h0a4.15,4.15,0,0,1-.7-.07Zm154.53-10.12a3.29,3.29,0,0,1,1.85-4.27h.06a3.36,3.36,0,0,1,4.29,2h0a3.32,3.32,0,0,1-2,4.24h0a2.92,2.92,0,0,1-1.17.21h0a3.26,3.26,0,0,1-3-2.16ZM147.6,503.32a3.3,3.3,0,0,1-1.54-4.39h0a3.3,3.3,0,0,1,4.4-1.55h0a3.34,3.34,0,0,1,1.54,4.45h0a3.32,3.32,0,0,1-3,1.8h0a3.53,3.53,0,0,1-1.39-.32ZM400.47,489a3.35,3.35,0,0,1,1.06-4.55h0a3.32,3.32,0,0,1,4.56,1h0A3.34,3.34,0,0,1,405,490h0a3.26,3.26,0,0,1-1.75.47h0A3.3,3.3,0,0,1,400.47,489ZM102,475h0a3.28,3.28,0,0,1-.58-4.6h0a3.3,3.3,0,0,1,4.62-.68h0a3.36,3.36,0,0,1,.59,4.66h0a3.3,3.3,0,0,1-2.6,1.27h0A3.37,3.37,0,0,1,102,475Zm340.76-18a3.27,3.27,0,0,1,.07-4.62h0a3.27,3.27,0,0,1,4.62.06h0a3.28,3.28,0,0,1-.08,4.64h0a3.14,3.14,0,0,1-2.28.9h0a3.28,3.28,0,0,1-2.36-1ZM63.07,438a3.28,3.28,0,0,1,.29-4.63h0a3.31,3.31,0,0,1,4.66.31h0a3.28,3.28,0,0,1-.29,4.63h0a3.26,3.26,0,0,1-2.18.85h0a3.26,3.26,0,0,1-2.44-1.11Zm414.8-20.8a3.27,3.27,0,0,1-.89-4.54h0v-.06h0a3.28,3.28,0,0,1,4.55-.88h.06a3.35,3.35,0,0,1,.84,4.6h0a3.48,3.48,0,0,1-2.75,1.43h0a3.43,3.43,0,0,1-1.86-.58ZM32.32,394.07h0a3.24,3.24,0,0,1,1.17-4.43l.1-.06h0a3.31,3.31,0,0,1,4.5,1.26h0a3.3,3.3,0,0,1-1.24,4.5h0a3.16,3.16,0,0,1-1.64.42h0A3.15,3.15,0,0,1,32.32,394.07Zm471.92-22.8a3.35,3.35,0,0,1-1.75-4.34h0a3.31,3.31,0,0,1,4.34-1.76h0a3.25,3.25,0,0,1,1.78,4.25h0v.08h0a3.3,3.3,0,0,1-3.08,2h0A4,4,0,0,1,504.24,371.27ZM11,344.85h0a3.34,3.34,0,0,1,2.12-4.18h0a3.36,3.36,0,0,1,4.19,2.17h0A3.3,3.3,0,0,1,15.14,347h0a3.08,3.08,0,0,1-1,.16h0A3.3,3.3,0,0,1,11,344.85Zm509.71-24a3.29,3.29,0,0,1-2.55-3.89h0a3.21,3.21,0,0,1,3.78-2.54H522a3.28,3.28,0,0,1,2.59,3.85h0a3.27,3.27,0,0,1-3.23,2.65h0a2.73,2.73,0,0,1-.7,0ZM.15,292.29a3.34,3.34,0,0,1,3-3.64h0a3.31,3.31,0,0,1,3.6,3h0a3.32,3.32,0,0,1-3,3.65h-.4A3.27,3.27,0,0,1,.15,292.29ZM523.37,265h.06v-.53h0c0-.16-.06-.37-.06-.53h0a3.32,3.32,0,0,1,3.3-3.34h0a3.31,3.31,0,0,1,3.29,3.29h0v.58h0V265h0a3.31,3.31,0,0,1-3.34,3.28h0a3.29,3.29,0,0,1-3.29-3.27ZM3,242.28a3.25,3.25,0,0,1-3-3.47v-.14H0a3.25,3.25,0,0,1,3.47-3h.14a3.23,3.23,0,0,1,3,3.44h0v.15h0a3.29,3.29,0,0,1-3.28,3H3Zm514.9-30.44a3.31,3.31,0,0,1,2.58-3.91h0a3.28,3.28,0,0,1,3.91,2.52h0a3.32,3.32,0,0,1-2.59,3.92h0a2.22,2.22,0,0,1-.63,0h0a3.39,3.39,0,0,1-3.3-2.54Zm-505-21.65a3.24,3.24,0,0,1-2.21-4v-.12h0a3.3,3.3,0,0,1,4.11-2.18h0A3.28,3.28,0,0,1,17,188h0a3.3,3.3,0,0,1-3.18,2.32h0a3.34,3.34,0,0,1-1-.12ZM502.05,162a3.25,3.25,0,0,1,1.64-4.29h.11a3.27,3.27,0,0,1,4.32,1.65v.05h0a3.27,3.27,0,0,1-1.71,4.31h0a2.84,2.84,0,0,1-1.28.27h0A3.34,3.34,0,0,1,502.05,162Zm-469-20.8a3.24,3.24,0,0,1-1.3-4.39v-.06h0a3.26,3.26,0,0,1,4.39-1.38l.11.06h0a3.3,3.3,0,0,1,1.27,4.49h0a3.23,3.23,0,0,1-2.91,1.7h0a3,3,0,0,1-1.59-.43Zm443.36-24.83a3.35,3.35,0,0,1,.85-4.61h0a3.33,3.33,0,0,1,4.61.8h0a3.3,3.3,0,0,1-.8,4.6h0a3.17,3.17,0,0,1-1.9.64h0a3.46,3.46,0,0,1-2.72-1.44ZM62.73,97.3a3.42,3.42,0,0,1-.37-4.71h0a3.41,3.41,0,0,1,4.72-.37h0a3.39,3.39,0,0,1,.37,4.71h0a3.57,3.57,0,0,1-2.54,1.17h0A3.46,3.46,0,0,1,62.73,97.3ZM442.19,76.81A3.32,3.32,0,0,1,442,72.1h0a3.27,3.27,0,0,1,4.61-.14l0,0h0a3.25,3.25,0,0,1,.25,4.56l-.09.1h0a3.4,3.4,0,0,1-2.44,1h0a3.26,3.26,0,0,1-2.18-.83ZM100.63,60.19a3.33,3.33,0,0,1,.59-4.65h0a3.33,3.33,0,0,1,4.66.58h0a3.34,3.34,0,0,1-.59,4.66h0a3.21,3.21,0,0,1-2,.69h0A3.33,3.33,0,0,1,100.63,60.19Zm300-15.29a3.36,3.36,0,0,1-1.06-4.56h0a3.33,3.33,0,0,1,4.56-1.11h0a3.34,3.34,0,0,1,1.06,4.56h0a3.34,3.34,0,0,1-2.81,1.58h0a3.52,3.52,0,0,1-1.76-.47ZM145.2,31.45A3.34,3.34,0,0,1,146.74,27h0a3.22,3.22,0,0,1,4.34,1.38h0v.09h0a3.28,3.28,0,0,1-1.42,4.42h-.06a3.62,3.62,0,0,1-1.48.32h0A3.26,3.26,0,0,1,145.2,31.45ZM353.57,22a3.29,3.29,0,0,1-2-4.2h0a3.34,3.34,0,0,1,4.28-2h0a3.34,3.34,0,0,1,2,4.29h0a3.41,3.41,0,0,1-3.12,2.17h0A4.14,4.14,0,0,1,353.57,22ZM194.69,12.24a3.33,3.33,0,0,1,2.33-4h0a3.27,3.27,0,0,1,4,2.28v.1h0a3.27,3.27,0,0,1-2.32,4h0a3.48,3.48,0,0,1-.85.11h0A3.29,3.29,0,0,1,194.69,12.24ZM302.81,9.06A3.34,3.34,0,0,1,300,5.3h0a3.36,3.36,0,0,1,3.76-2.81h0a3.34,3.34,0,0,1,2.81,3.76h0a3.3,3.3,0,0,1-3.28,2.81h-.48ZM247,3.45A3.23,3.23,0,0,1,250,0h.09a3.26,3.26,0,0,1,3.45,3.06v0h0a3.23,3.23,0,0,1-3,3.44h-.1a.43.43,0,0,1-.16,0h0A3.27,3.27,0,0,1,247,3.45Z" transform="translate(0.01 0)"/><path class="cls-2" d="M571.84,262.59l-64.78-37.4c-5.55-3.21-10-11.81-10-19.21V135.39c0-7.4,4.5-10.81,10-7.6l64.78,37.4c5.55,3.2,10,11.8,10,19.2V255C581.89,262.39,577.39,265.79,571.84,262.59Z" transform="translate(0.01 0)"/><path class="cls-2" d="M681.86,338.2l-64.78-37.4c-5.55-3.2-10-11.8-10-19.2V211c0-7.4,4.5-10.8,10-7.6l64.78,37.4c5.55,3.21,10,11.81,10,19.21V330.6C691.91,338,687.41,341.41,681.86,338.2Z" transform="translate(0.01 0)"/><path class="cls-2" d="M679.09,482.6l-64.78-37.4c-5.55-3.2-10-11.8-10-19.2V355.4c0-7.4,4.5-10.8,10-7.6l64.78,37.4c5.55,3.21,10,11.81,10,19.21V475C689.14,482.4,684.64,485.81,679.09,482.6Z" transform="translate(0.01 0)"/><path class="cls-2" d="M511.93,667.32l-263.62-156,7.26-1.71,151.48-89.14,251.18,145a8.81,8.81,0,0,1,.08,15.21Z" transform="translate(0.01 0)"/><rect class="cls-3" x="647.41" y="452.26" width="8.27" height="124.35" rx="1.5" transform="translate(-60.3 87.33) rotate(-7.33)"/><polygon class="cls-4" points="651.93 485.14 654.8 507.49 647.01 511.82 644.16 489.62 651.93 485.14"/><path class="cls-3" d="M511.73,665.71h0a4.09,4.09,0,0,1-3.73-4.42v0l16.09-186.85a4.09,4.09,0,0,1,4.42-3.73h0a4.09,4.09,0,0,1,3.73,4.42h0L516.16,662A4.1,4.1,0,0,1,511.73,665.71Z" transform="translate(0.01 0)"/><polygon class="cls-4" points="524.13 568.2 516.34 562.86 518.56 540.42 526.87 541.72 524.13 568.2"/><rect class="cls-3" x="204.63" y="448.17" width="127.81" height="6.79" rx="1.15" transform="translate(-222.05 639.57) rotate(-80.23)"/><rect class="cls-5" x="257.7" y="377.35" width="21.72" height="12.62"/><rect class="cls-5" x="652.69" y="458.02" width="21.72" height="12.62"/><path class="cls-6" d="M528.78,549.15,260.46,394.24c-4.2-2.43-3.67-6.67,1.18-9.48l125.2-72.28c4.86-2.8,12.21-3.11,16.41-.68L671.57,466.71c4.2,2.43,3.67,6.67-1.18,9.47l-125.2,72.29C540.33,551.27,533,551.58,528.78,549.15Z" transform="translate(0.01 0)"/><path class="cls-7" d="M528.78,537.05,260.46,382.14c-4.2-2.43-3.67-6.67,1.18-9.48l125.2-72.28c4.86-2.81,12.21-3.11,16.41-.68L671.57,454.61c4.2,2.43,3.67,6.67-1.18,9.47l-125.2,72.29C540.33,539.17,533,539.48,528.78,537.05Z" transform="translate(0.01 0)"/><path class="cls-8" d="M567.71,341.5a10.14,10.14,0,0,0-1.62-5c-.06-.1-.12-.19-.17-.29l-.18-.29A10.9,10.9,0,0,0,562,332l-95.86-54.91L371.2,222.71h0l-.93-.53a3.82,3.82,0,0,0-3.75-.35l-.18.08s-.12.06-.17.1a3.25,3.25,0,0,0-1.67,3.12v1h0l-.61,96.06c0,4,2.52,8.73,5.69,10.54L561.31,442.55c3.16,1.82,5.75,0,5.78-4l.54-85.34h0Z" transform="translate(0.01 0)"/><polygon class="cls-2" points="225.33 655.93 321.24 599.34 420.27 657.95 321.32 712.53 225.33 655.93"/><path class="cls-3" d="M437.55,623.84,412.28,629l-3.4,8.77c-.81,6.29-.77,9.64,3.4,13,3.51,2.79,10.66.64,14.4-1.1l16.22-9.76c12-6.63,11.13-11.54,9.83-15.6h0C450.8,619.71,445.24,620.76,437.55,623.84Z" transform="translate(0.01 0)"/><path class="cls-3" d="M389.6,602l-23,4.68-3.1,8c-.75,5.72-.71,8.76,3.09,11.78,3.19,2.54,9.7.58,13.1-1l14.79-8.87c10.95-6,10.13-10.5,8.95-14.19h0C401.67,598.2,396.6,599.16,389.6,602Z" transform="translate(0.01 0)"/><path class="cls-8" d="M561.31,425.93,369.58,316.11c-3.17-1.82-5.72-6.54-5.69-10.54l.61-96.07c0-4,2.61-5.78,5.78-4L562,315.35c3.17,1.82,5.72,6.53,5.69,10.54L567.08,422C567.06,426,564.47,427.74,561.31,425.93Z" transform="translate(0.01 0)"/><path class="cls-9" d="M567.63,336.62l.08-11.74c0-3.45-2.94-7.95-6.63-10.06L371.21,206.06c-3.68-2.1-6.68-1-6.7,2.43l-.08,11.74Z" transform="translate(0.01 0)"/><path class="cls-10" d="M379.74,221c0,1.56-1.36,2.05-3,1.09a6,6,0,0,1-3-4.54c0-1.56,1.37-2.05,3-1.1A6,6,0,0,1,379.74,221Z" transform="translate(0.01 0)"/><path class="cls-11" d="M391.91,227.92c0,1.56-1.37,2.05-3,1.1a6,6,0,0,1-3-4.54c0-1.56,1.37-2,3-1.1A6,6,0,0,1,391.91,227.92Z" transform="translate(0.01 0)"/><path class="cls-12" d="M404.07,234.89c0,1.56-1.37,2.05-3,1.1a6,6,0,0,1-3-4.55c0-1.55,1.36-2.05,3-1.09A6,6,0,0,1,404.07,234.89Z" transform="translate(0.01 0)"/><path class="cls-6" d="M423.32,261.61l-40-22.9c-2-1.17-3.7,0-3.72,2.55l-.43,67.9a8.41,8.41,0,0,0,3.66,6.77l40,22.91c2,1.16,3.7,0,3.72-2.56l.43-67.89A8.45,8.45,0,0,0,423.32,261.61Z" transform="translate(0.01 0)"/><path class="cls-13" d="M414.54,342.14l-40-22.91a8.41,8.41,0,0,1-3.66-6.77l.44-67.9c0-2.58,1.68-3.72,3.71-2.55l40,22.9a8.45,8.45,0,0,1,3.66,6.78l-.44,67.89C418.24,342.16,416.57,343.3,414.54,342.14Z" transform="translate(0.01 0)"/><path class="cls-14" d="M410.46,280l-31.07-17.8a6.12,6.12,0,0,1-2.66-4.92h0c0-1.87,1.22-2.7,2.7-1.86l31.07,17.8a6.13,6.13,0,0,1,2.66,4.93h0C413.15,280,411.94,280.82,410.46,280Z" transform="translate(0.01 0)"/><polygon class="cls-8" points="413.07 293.27 377.67 272.99 377.7 267.63 413.11 287.91 413.07 293.27"/><polygon class="cls-8" points="413 305.56 377.59 285.27 377.62 279.91 413.03 300.19 413 305.56"/><polygon class="cls-8" points="412.92 317.84 377.51 297.56 377.54 292.2 412.95 312.48 412.92 317.84"/><polygon class="cls-8" points="394.63 319.03 377.44 309.18 377.47 303.82 394.66 313.66 394.63 319.03"/><path class="cls-13" d="M547.26,408.43,439.35,346.62a8.43,8.43,0,0,1-3.65-6.77l.43-67.9c0-2.58,1.68-3.72,3.72-2.55l107.9,61.8a8.45,8.45,0,0,1,3.66,6.78l-.44,67.9C551,408.45,549.29,409.6,547.26,408.43Z" transform="translate(0.01 0)"/><path class="cls-14" d="M541.72,345.43l-96.07-55a6.12,6.12,0,0,1-2.66-4.92h0c0-1.87,1.23-2.7,2.71-1.86l96.06,55a6.12,6.12,0,0,1,2.66,4.92h0C544.41,345.44,543.2,346.27,541.72,345.43Z" transform="translate(0.01 0)"/><path class="cls-8" d="M541,356.8l-37.45-21.46a4.83,4.83,0,0,1-2.11-3.9h0c0-1.48,1-2.13,2.14-1.46L541,351.43a4.85,4.85,0,0,1,2.1,3.9h0C543.08,356.81,542.13,357.47,541,356.8Z" transform="translate(0.01 0)"/><path class="cls-15" d="M484,324.16,446.51,302.7a4.82,4.82,0,0,1-2.1-3.89h0c0-1.48,1-2.14,2.14-1.47L484,318.8a4.82,4.82,0,0,1,2.1,3.89h0C486.1,324.17,485.14,324.83,484,324.16Z" transform="translate(0.01 0)"/><polygon class="cls-8" points="543.01 370.3 501.31 346.41 501.34 341.05 543.04 364.94 543.01 370.3"/><polygon class="cls-8" points="486.02 337.66 444.32 313.77 444.36 308.41 486.06 332.3 486.02 337.66"/><polygon class="cls-8" points="542.93 382.58 501.23 358.7 501.26 353.34 542.96 377.22 542.93 382.58"/><polygon class="cls-8" points="485.95 349.94 444.25 326.06 444.28 320.7 485.98 344.58 485.95 349.94"/><polygon class="cls-8" points="461.36 347.52 444.17 337.68 444.21 332.32 461.4 342.16 461.36 347.52"/><polygon class="cls-8" points="518.35 380.16 501.15 370.31 501.19 364.95 518.38 374.8 518.35 380.16"/><path class="cls-9" d="M386,582.6c-5.54,4.33-17.43,16.7-21.23,10.62-.24,3.22-.43,6.44-.53,9.66-.4,13.13,20,14.3,20.41,1.12C384.75,601.4,385.85,585.2,386,582.6Z" transform="translate(0.01 0)"/><path class="cls-9" d="M351.11,555.58c6.73-4.77,13.85-9.43,21.77-11.93a29,29,0,0,1,8.43-1.75,38.13,38.13,0,0,1,4,.06c3,.21-.94-.37,1.58.31.51.14,4.78,1.75,2.55.7a29.43,29.43,0,0,1,3,1.68c2.87,1.75-1.39-1.46,1.1.81.85.77,1.66,1.59,2.44,2.43.92,1.11,1,1.18.25.2.46.64.91,1.29,1.33,2,.62,1,1.25,2.07,1.81,3.14,0,.06,1.56,3.51.78,1.55.56,1.39,1,2.81,1.44,4.24,2.55,8.66,3.21,17.78,4.61,28,1.53,11.24,3.42,25.72,2.63,38.24-.42,6.74,6.05,12.5,12.5,12.5,7.11,0,10.14-5.64,10.56-12.4A236.15,236.15,0,0,0,430,578.2c-.45-3.17-.92-6.33-1.39-9.5-.16-1.08-.29-2.18-.48-3.25-.42-2.4.51,3.08.18,1.34-1.55-8.27-2.54-15.65-6-23.42-3.19-7.07-46.74-10.92-36.2-15.89,14.85-7-.52-16-6.58-17.14-19.24-3.66-39.35,9.81-54.67,20.67-5.5,3.9,5.63,13.9,9.25,20.08,3.18,5.44,11.56,8.41,17.09,4.49Z" transform="translate(0.01 0)"/><path class="cls-16" d="M481.29,440.85,389.1,387.62a1.69,1.69,0,0,0-1.71,0l-28,16.52a1.69,1.69,0,0,0-.61,2.31,1.78,1.78,0,0,0,.61.61l91.88,53a1.7,1.7,0,0,0,1.69,0l28.3-16.34a1.69,1.69,0,0,0,.57-2.32A1.77,1.77,0,0,0,481.29,440.85Z" transform="translate(0.01 0)"/><path class="cls-13" d="M451.54,456l-91.88-53a1.69,1.69,0,0,1-.61-2.31,1.78,1.78,0,0,1,.61-.61l28-16.51a1.67,1.67,0,0,1,1.7,0l92.2,53.22a1.7,1.7,0,0,1,.6,2.33,1.64,1.64,0,0,1-.6.6L453.23,456A1.7,1.7,0,0,1,451.54,456Z" transform="translate(0.01 0)"/><path class="cls-8" d="M392.18,391.8a.76.76,0,0,1-.67-.08l-6.2-3.57c-.22-.13-.28-.31-.13-.39l4.1-2.38a.78.78,0,0,1,.68.08l6.19,3.58c.23.13.29.3.14.39Z" transform="translate(0.01 0)"/><path class="cls-8" d="M399.38,402.48a.78.78,0,0,1-.68-.08l-6.2-3.57c-.22-.13-.28-.31-.13-.39l4.11-2.38a.79.79,0,0,1,.67.08l6.19,3.58c.23.13.29.3.14.39Z" transform="translate(0.01 0)"/><path class="cls-8" d="M395.74,406.92a.79.79,0,0,1-.67-.08l-6.2-3.58c-.22-.13-.29-.3-.14-.39l4.11-2.37a.76.76,0,0,1,.67.08l6.2,3.57c.22.13.28.31.14.39Z" transform="translate(0.01 0)"/><path class="cls-8" d="M385.9,407.77a.76.76,0,0,1-.67-.08l-6.2-3.57c-.22-.13-.28-.31-.13-.39l4.11-2.37a.79.79,0,0,1,.67.07l6.2,3.58c.22.13.28.3.13.39Z" transform="translate(0.01 0)"/><path class="cls-8" d="M379.53,411.45a1,1,0,0,1-.8-.15l-8.12-4.69c-.29-.17-.41-.37-.26-.46l4.82-2.79a1,1,0,0,1,.8.16l8.12,4.68c.3.17.41.38.27.46Z" transform="translate(0.01 0)"/><path class="cls-8" d="M432.89,442.28a.78.78,0,0,1-.63-.1l-6.2-3.58c-.22-.13-.31-.29-.18-.36l1.78-1a.77.77,0,0,1,.63.11l6.2,3.57c.22.13.3.29.18.36Z" transform="translate(0.01 0)"/><path class="cls-8" d="M441.17,447.19a.74.74,0,0,1-.63-.11l-6.19-3.57c-.23-.13-.31-.3-.19-.37l1.78-1a.74.74,0,0,1,.63.11l6.2,3.57c.22.13.3.3.18.37Z" transform="translate(0.01 0)"/><path class="cls-8" d="M450,452.14a.72.72,0,0,1-.62-.11l-6.2-3.58c-.22-.13-.31-.29-.19-.36l1.72-1a.8.8,0,0,1,.62.11l6.19,3.58c.23.13.31.29.19.36Z" transform="translate(0.01 0)"/><path class="cls-8" d="M444.55,445.3a.8.8,0,0,1-.62-.11l-6.2-3.58c-.22-.13-.31-.29-.19-.36l1.72-1a.8.8,0,0,1,.62.11l6.19,3.57c.23.13.31.3.19.36Z" transform="translate(0.01 0)"/><path class="cls-8" d="M422.17,436.05a.76.76,0,0,1-.67-.08l-40.34-23.28c-.22-.12-.29-.3-.14-.38l4.82-2.79a.78.78,0,0,1,.68.08l40.33,23.28c.23.13.29.3.14.39Z" transform="translate(0.01 0)"/><path class="cls-8" d="M418,432.52a1.54,1.54,0,0,1-.34-.17l-32.1-18.53a1.27,1.27,0,0,1-.31-.2l.3-.17a2.21,2.21,0,0,1,.34.18L418,432.15a2,2,0,0,1,.31.2Z" transform="translate(0.01 0)"/><path class="cls-8" d="M394.4,412.67a.76.76,0,0,1-.67-.08l-6.2-3.58c-.22-.12-.28-.3-.14-.38l4.11-2.38a.79.79,0,0,1,.67.08l6.2,3.58c.23.13.29.3.14.39Z" transform="translate(0.01 0)"/><path class="cls-8" d="M402.94,417.6a.85.85,0,0,1-.68-.08l-6.19-3.58c-.22-.13-.29-.3-.14-.39l4.11-2.37a.76.76,0,0,1,.67.08l6.2,3.57c.22.13.28.31.13.39Z" transform="translate(0.01 0)"/><path class="cls-8" d="M411.47,422.52a.76.76,0,0,1-.67-.08l-6.2-3.57c-.22-.13-.28-.31-.13-.39l4.1-2.37a.81.81,0,0,1,.68.07l6.19,3.58c.23.13.29.3.14.39Z" transform="translate(0.01 0)"/><path class="cls-8" d="M420,427.45a.78.78,0,0,1-.68-.08l-6.19-3.58c-.23-.13-.29-.3-.14-.39L417.1,421a.76.76,0,0,1,.67.08l6.2,3.58c.22.12.28.3.13.38Z" transform="translate(0.01 0)"/><path class="cls-8" d="M428.54,432.37a.76.76,0,0,1-.67-.08l-6.2-3.57c-.22-.13-.28-.31-.14-.39l4.11-2.37a.76.76,0,0,1,.67.07l6.2,3.58c.22.13.29.3.14.39Z" transform="translate(0.01 0)"/><path class="cls-8" d="M437.08,437.29a.81.81,0,0,1-.68-.07l-6.19-3.58c-.23-.13-.29-.31-.14-.39l4.11-2.37a.76.76,0,0,1,.67.08l6.2,3.57c.22.13.28.31.14.39Z" transform="translate(0.01 0)"/><path class="cls-8" d="M456.3,448.39a.79.79,0,0,1-.67-.08l-16.89-9.75c-.22-.12-.28-.3-.14-.38l4.11-2.38a.78.78,0,0,1,.68.08l16.88,9.75c.23.12.29.3.14.39Z" transform="translate(0.01 0)"/><path class="cls-8" d="M404.23,411.81a.79.79,0,0,1-.67-.07l-6.2-3.58c-.22-.13-.28-.3-.13-.39l4.11-2.37a.76.76,0,0,1,.67.08l6.2,3.57c.22.13.28.31.13.39Z" transform="translate(0.01 0)"/><path class="cls-8" d="M412.77,416.74a.76.76,0,0,1-.67-.08l-6.2-3.58c-.22-.12-.28-.3-.14-.38l4.11-2.38a.79.79,0,0,1,.67.08l6.2,3.58c.22.13.28.3.14.39Z" transform="translate(0.01 0)"/><path class="cls-8" d="M421.31,421.66a.81.81,0,0,1-.68-.07L414.44,418c-.22-.13-.29-.3-.14-.39l4.1-2.37a.78.78,0,0,1,.68.08l6.2,3.57c.22.13.28.31.13.39Z" transform="translate(0.01 0)"/><path class="cls-8" d="M429.84,426.59a.76.76,0,0,1-.67-.08l-6.2-3.58c-.22-.12-.29-.3-.14-.38l4.11-2.38a.79.79,0,0,1,.67.08l6.2,3.58c.22.13.28.3.14.39Z" transform="translate(0.01 0)"/><path class="cls-8" d="M438.38,431.51a.76.76,0,0,1-.67-.08l-6.2-3.57c-.23-.13-.29-.31-.14-.39l4.11-2.37a.79.79,0,0,1,.67.07l6.2,3.58c.22.13.28.31.14.39Z" transform="translate(0.01 0)"/><path class="cls-8" d="M446.91,436.44a.79.79,0,0,1-.67-.08l-6.2-3.58c-.22-.13-.29-.3-.14-.39L444,430a.78.78,0,0,1,.68.08l6.19,3.58c.22.12.28.3.14.38Z" transform="translate(0.01 0)"/><path class="cls-8" d="M455.44,441.36a.76.76,0,0,1-.67-.08l-6.2-3.57c-.22-.13-.28-.3-.13-.39l4.11-2.37a.79.79,0,0,1,.67.07l6.2,3.58c.22.13.28.3.13.39Z" transform="translate(0.01 0)"/><path class="cls-8" d="M407.87,407.38a.76.76,0,0,1-.67-.08l-6.2-3.57c-.22-.13-.28-.31-.13-.39L405,401a.79.79,0,0,1,.67.08l6.2,3.58c.22.13.28.3.14.39Z" transform="translate(0.01 0)"/><path class="cls-8" d="M416.4,412.3a.76.76,0,0,1-.67-.07l-6.2-3.58c-.22-.13-.28-.3-.13-.39l4.11-2.37a.76.76,0,0,1,.67.08l6.2,3.57c.22.13.28.31.13.39Z" transform="translate(0.01 0)"/><path class="cls-8" d="M424.94,417.23a.78.78,0,0,1-.68-.08l-6.19-3.57c-.23-.13-.29-.31-.14-.39l4.11-2.38a.79.79,0,0,1,.67.08l6.2,3.58c.22.13.28.3.14.39Z" transform="translate(0.01 0)"/><path class="cls-8" d="M433.47,422.15a.76.76,0,0,1-.67-.07l-6.2-3.58c-.22-.13-.28-.3-.13-.39l4.1-2.37a.78.78,0,0,1,.68.08l6.19,3.57c.23.13.29.31.14.39Z" transform="translate(0.01 0)"/><path class="cls-8" d="M442,427.08a.79.79,0,0,1-.67-.08l-6.2-3.58c-.22-.13-.28-.3-.13-.39l4.1-2.37a.79.79,0,0,1,.67.08l6.2,3.58c.22.12.28.3.14.38Z" transform="translate(0.01 0)"/><path class="cls-8" d="M450.55,432a.78.78,0,0,1-.68-.08l-6.2-3.57c-.22-.13-.28-.3-.13-.39l4.11-2.37a.79.79,0,0,1,.67.07l6.19,3.58c.23.13.29.31.14.39Z" transform="translate(0.01 0)"/><path class="cls-8" d="M459.08,436.93a.79.79,0,0,1-.67-.08l-6.2-3.58c-.23-.13-.29-.3-.14-.39l4.11-2.37a.79.79,0,0,1,.67.08l6.2,3.58c.22.13.28.3.14.38Z" transform="translate(0.01 0)"/><path class="cls-8" d="M390.84,397.56a.79.79,0,0,1-.67-.08l-10.51-6.07c-.23-.13-.29-.3-.14-.39l4.11-2.37a.79.79,0,0,1,.67.08l10.51,6.07c.22.12.28.3.14.38Z" transform="translate(0.01 0)"/><path class="cls-8" d="M473.27,438.59a.79.79,0,0,1-.67-.08l-10.51-6.07c-.22-.12-.29-.3-.14-.39l4.11-2.37a.79.79,0,0,1,.67.08l10.51,6.06c.22.13.28.31.14.39Z" transform="translate(0.01 0)"/><path class="cls-8" d="M387.2,402a.76.76,0,0,1-.67-.08L374,394.68c-.22-.13-.28-.3-.14-.39l4.11-2.37a.76.76,0,0,1,.67.08l12.53,7.23c.23.13.29.3.14.39Z" transform="translate(0.01 0)"/><path class="cls-8" d="M377.37,402.85a.79.79,0,0,1-.67-.08L368.35,398c-.23-.13-.29-.31-.14-.39l4.11-2.37a.79.79,0,0,1,.67.07l8.35,4.83c.23.12.29.3.14.38Z" transform="translate(0.01 0)"/><path class="cls-8" d="M400.72,396.73a.78.78,0,0,1-.68-.08l-6.19-3.58c-.23-.13-.29-.3-.14-.39l4.11-2.37a.76.76,0,0,1,.67.08l6.2,3.57c.22.13.28.31.13.39Z" transform="translate(0.01 0)"/><path class="cls-8" d="M409.22,401.63a.85.85,0,0,1-.68-.08l-6.2-3.58c-.22-.13-.28-.3-.13-.39l4.1-2.37a.78.78,0,0,1,.68.08l6.19,3.57c.23.13.29.31.14.39Z" transform="translate(0.01 0)"/><path class="cls-8" d="M417.75,406.55a.78.78,0,0,1-.68-.08l-6.19-3.58c-.23-.12-.29-.3-.14-.38l4.11-2.38a.79.79,0,0,1,.67.08l6.2,3.58c.22.13.28.3.13.39Z" transform="translate(0.01 0)"/><path class="cls-8" d="M426.28,411.47a.76.76,0,0,1-.67-.07l-6.2-3.58c-.22-.13-.28-.3-.13-.39l4.1-2.37a.78.78,0,0,1,.68.08l6.19,3.57c.23.13.29.31.14.39Z" transform="translate(0.01 0)"/><path class="cls-8" d="M434.82,416.4a.78.78,0,0,1-.68-.08L428,412.75c-.23-.13-.29-.31-.14-.39L432,410a.79.79,0,0,1,.67.08l6.2,3.58c.22.13.28.3.13.39Z" transform="translate(0.01 0)"/><path class="cls-8" d="M443.35,421.32a.79.79,0,0,1-.67-.07l-6.2-3.58c-.22-.13-.28-.31-.13-.39l4.1-2.37a.81.81,0,0,1,.68.07l6.2,3.58c.22.13.28.3.13.39Z" transform="translate(0.01 0)"/><path class="cls-8" d="M451.89,426.25a.79.79,0,0,1-.67-.08l-6.2-3.58c-.23-.13-.29-.3-.14-.39l4.11-2.37a.76.76,0,0,1,.67.08l6.2,3.58c.22.13.28.3.14.39Z" transform="translate(0.01 0)"/><path class="cls-8" d="M460.42,431.17a.79.79,0,0,1-.67-.07l-6.2-3.58c-.22-.13-.28-.31-.13-.39l4.1-2.37a.79.79,0,0,1,.67.07l6.21,3.58c.22.13.28.3.13.39Z" transform="translate(0.01 0)"/><path class="cls-8" d="M465.38,435.51a.89.89,0,0,0-.36-.11.51.51,0,0,0-.3,0l-4.11,2.37a.15.15,0,0,0-.08.18.53.53,0,0,0,.21.21l1.62.93L457,442.24a.16.16,0,0,0-.07.18.53.53,0,0,0,.21.21l4.18,2.41a.77.77,0,0,0,.36.12.55.55,0,0,0,.31,0l9.76-5.64a.14.14,0,0,0,.07-.18.43.43,0,0,0-.21-.21Z" transform="translate(0.01 0)"/><path class="cls-16" d="M482.92,475.94l-13.2,9c-4.86,3.33-12.23,2.9-16.36-1h0c-4.14-3.86-3.54-9.75,1.32-13.09l13.2-9c4.87-3.34,12.23-2.91,16.37,1h0C488.38,466.72,487.79,472.61,482.92,475.94Z" transform="translate(0.01 0)"/><path class="cls-9" d="M479.62,472.9,466.42,482c-4.87,3.33-12.23,2.9-16.37-1h0c-4.13-3.86-3.54-9.75,1.33-13.09l13.2-9c4.86-3.34,12.23-2.91,16.36,1h0C485.08,463.68,484.48,469.57,479.62,472.9Z" transform="translate(0.01 0)"/><path class="cls-13" d="M476.74,459.64a9.57,9.57,0,0,0-3.89,2c-.5.43.23,1.15.73.72a8.32,8.32,0,0,1,3.44-1.77c.63-.16.36-1.15-.28-1Z" transform="translate(0.01 0)"/><path class="cls-9" d="M355.66,573.09c10.45-6,21.74-10.61,32.63-15.71,9.27-4.33,16.32-4.8,25.79-6.57,6.81-1.28,10.68-9.5,8.95-15.77-2-7.14-17.42-14.72-24.74-11.44-4.59,2.06-18.33,6.54-23.43,8.91-11.61,5.4-21,12.1-32.14,18.45-14.32,8.17-1.43,30.32,12.94,22.13Z" transform="translate(0.01 0)"/><path class="cls-17" d="M300.77,462.8c8.9.24,8.8-7.7,9.94-14,0,.11.32-2.44.11-1.83a4.36,4.36,0,0,1-2.05,1.29,49.54,49.54,0,0,0,7-.25,64.91,64.91,0,0,0,22.33-6.51c9.89-4.77,22.89-19.25,34.36-18.13,10.29,1,10.22-15.07,0-16.07-10.48-1-19.39,5.88-27.59,11.4-5.91,4-11.94,8-18.63,10.52-7.06,2.67-14.44,1.31-21.33,3.42-6.46,2-10.1,8-10.16,14.61,0,.92-.59,2.69-.22,3.53.68,1.58,9.49-.3,9.13-3.69-.11-1.06-4.07-4.45-4.78-5.29C295.25,437.49,289.83,462.5,300.77,462.8Z" transform="translate(0.01 0)"/><path class="cls-8" d="M279.62,418.84c-4.72,5.11-4.63,12.37-5.2,19.63a15.09,15.09,0,0,0,10.32,15.69l66.68,22.3s18.66-25.93-3.24-35.34c-11.38-4.89-19.09-11.66-27.62-17.58C308,414.85,290.55,407,279.62,418.84Z" transform="translate(0.01 0)"/><path class="cls-8" d="M266.28,546.25c-4.9-1.74,3.22-71,9-117.45l78.94,40.46c-5.69,30.12-3.85,53.39-2.77,84,.52,14.8-18.26,26.16-31.52,19.58Z" transform="translate(0.01 0)"/><path class="cls-17" d="M354,471.5c11.81,10.79,22.92,31.19,40.67,32.08,21.11,1.06,39.87-16.87,59.49-22.26,10-2.73,5.74-18.25-4.27-15.5-17.36,4.77-32.39,18-50,21.26-7.07,1.32-10.3-1.54-14.88-6.49-6.45-7-12.6-14-19.64-20.46-7.63-7-19,4.38-11.37,11.37Z" transform="translate(0.01 0)"/><path class="cls-8" d="M338.93,464.14l30.78,30c10,7.32,23.14-11.09,15.38-17.81l-30-31.36c-5-4.27-11.7-4.25-15.55,0h0C335.56,449.53,334.29,459,338.93,464.14Z" transform="translate(0.01 0)"/><path class="cls-17" d="M307.38,419.84l10.43-25.66,14.43,13.66-8.94,23.45C322.16,435.15,304.7,428.7,307.38,419.84Z" transform="translate(0.01 0)"/><path class="cls-13" d="M338,435.25c-19.66-3.91-33.5-1-36.21-20.82h0a6.23,6.23,0,0,1,8.43,2.28c2.9,5.06,9.87,8.5,18,7.9a6,6,0,0,1,5.79,3.12Z" transform="translate(0.01 0)"/><path class="cls-2" d="M457.77,59.52l-67-38.7c-3.74-2.16-6.77.09-6.77,5l-.1,141.36c0,4.92,3,10.66,6.75,12.82l67,38.7c3.74,2.15,6.76-.09,6.77-5l.1-141.35C464.52,67.41,461.5,61.67,457.77,59.52Z" transform="translate(0.01 0)"/><path class="cls-18" d="M558.28,179.91l-64.6-37.4c-2.66-1.53-5-1.54-6.78-.33h0L476,148.33a93.65,93.65,0,0,1,7.41,14V220.7c0,7.4,4.6,16,10.15,19.21l52.64,30.37c4.91,8.27,8.51,13.67,8.51,13.67l10.45-5.87h0c1.66-.81,3.14-4,3.14-8.36v-70.6C568.24,191.71,563.83,183.11,558.28,179.91Z" transform="translate(0.01 0)"/><path class="cls-12" d="M547.22,283.81l-64.77-37.4c-5.56-3.2-10.06-11.8-10.06-19.2v-70.6c0-7.4,4.5-10.8,10.06-7.6l64.77,37.4c5.55,3.21,10,11.8,10,19.21v70.59C557.27,283.61,552.77,287,547.22,283.81Z" transform="translate(0.01 0)"/><path class="cls-9" d="M441.71,221.54l-61.93-35.75c-3.45-2-6.24-7.3-6.24-11.85l.09-130.6c0-4.56,2.8-6.63,6.25-4.64l61.94,35.76c3.44,2,6.24,7.29,6.24,11.84L448,216.91C448,221.46,445.16,223.53,441.71,221.54Z" transform="translate(0.01 0)"/><path class="cls-12" d="M400.41,84.11l-13.32-7.69c-2.7-1.56-4.89-5.71-4.88-9.28h0c0-3.56,2.19-5.19,4.89-3.63l13.32,7.69c2.7,1.56,4.89,5.72,4.89,9.28h0C405.3,84,403.11,85.67,400.41,84.11Z" transform="translate(0.01 0)"/><path class="cls-13" d="M418.74,117.11l-20.08-11.59c-2.14-1.24-3.87-4.52-3.87-7.34h0c0-2.82,1.74-4.11,3.88-2.88l20.07,11.6c2.14,1.23,3.87,4.52,3.87,7.34h0C422.61,117.06,420.87,118.34,418.74,117.11Z" transform="translate(0.01 0)"/><path class="cls-15" d="M435.55,150.22l-36.91-21.3c-2.14-1.24-3.87-4.52-3.87-7.34h0c0-2.82,1.74-4.11,3.88-2.87l36.9,21.3c2.14,1.24,3.87,4.52,3.87,7.34h0C439.42,150.17,437.68,151.46,435.55,150.22Z" transform="translate(0.01 0)"/><path class="cls-13" d="M418.7,163.91l-20.07-11.59c-2.14-1.24-3.87-4.52-3.87-7.34h0c0-2.82,1.73-4.11,3.87-2.87l20.08,11.59c2.14,1.23,3.87,4.52,3.87,7.34h0C422.58,163.86,420.84,165.15,418.7,163.91Z" transform="translate(0.01 0)"/><path class="cls-12" d="M401.37,176l-13.75-7.94c-2.14-1.24-3.87-4.52-3.87-7.34h0c0-2.82,1.74-4.11,3.87-2.87l13.75,7.93c2.14,1.24,3.87,4.52,3.87,7.34h0C405.24,176,403.5,177.27,401.37,176Z" transform="translate(0.01 0)"/><rect class="cls-3" x="404.25" y="553.22" width="7.95" height="108.9" rx="1.52" transform="matrix(0.99, -0.15, 0.15, 0.99, -84.76, 66.49)"/><path class="cls-3" d="M227.86,668.18h0a3.84,3.84,0,0,1-3.23-4.36l18.06-121.75a3.84,3.84,0,0,1,4.35-3.23h0a3.84,3.84,0,0,1,3.24,4.36h0L232.22,665A3.85,3.85,0,0,1,227.86,668.18Z" transform="translate(0.01 0)"/><path class="cls-3" d="M316.41,720h0a4.11,4.11,0,0,1-3.47-4.66L334,573.09a4.11,4.11,0,0,1,4.67-3.47h0a4.12,4.12,0,0,1,3.46,4.67l-21.08,142.2a4.11,4.11,0,0,1-4.63,3.51Z" transform="translate(0.01 0)"/><path class="cls-12" d="M329.85,619.4l-86.64-50.22c-8.12-4.69-12.61-14-12.61-14-3-7,4.21-12,12.34-7.34l79.47,46.79c8.13,4.69,11.19,9.59,9.88,15.4C332.29,610,340.14,624.71,329.85,619.4Z" transform="translate(0.01 0)"/><path class="cls-12" d="M405.35,582.2,345.1,619.09c-9.76,6-17.3,3.17-16.76-6.23l.52-9c.54-9.4,9-22,18.72-28L407.83,539c9.76-6,17.3-3.17,16.76,6.23l-.52,9C423.53,563.64,415.11,576.22,405.35,582.2Z" transform="translate(0.01 0)"/><path class="cls-12" d="M230.65,553.88l-15.08-94.33c-2.56-13.95,7.87-18.6,22.58-10.06L297,483.63c10.6,6.15,20.66,17.65,25.16,28.74L347,573.62c7.12,17.56-8.24,34.84-23.11,26Z" transform="translate(0.01 0)"/><path class="cls-19" d="M335.62,376.33l.09,2.54s.34,7.66-7.19,3.7-7.3-13.51-7.3-13.51S326.94,368.39,335.62,376.33Z" transform="translate(0.01 0)"/><path class="cls-20" d="M328.47,382.79c9.82,5.11,9.47-3.82,9.47-3.82H338l-.29-3c-11-9.42-17.93-9-17.93-9S318.64,377.68,328.47,382.79Zm-6.87-13.37s5.59-.29,14,7l.07,2.2s.26,6.63-7,2.83S321.6,369.42,321.6,369.42Z" transform="translate(0.01 0)"/><polygon class="cls-20" points="341.63 380.68 335.79 378.01 335.47 374.71 341.31 377.37 341.63 380.68"/><path class="cls-20" d="M320.28,369.54l-1-.47a2.34,2.34,0,0,1-1.14-1.76h0c-.07-.71.33-1.08.9-.82l1,.47a2.32,2.32,0,0,1,1.15,1.76h0C321.24,369.43,320.84,369.8,320.28,369.54Z" transform="translate(0.01 0)"/><path class="cls-20" d="M358.05,386.77l-1-.47a2.3,2.3,0,0,1-1.15-1.75h0c-.07-.72.33-1.09.9-.83l1,.47A2.36,2.36,0,0,1,359,386h0C359,386.66,358.61,387,358.05,386.77Z" transform="translate(0.01 0)"/><path class="cls-21" d="M357.22,384.07s-7.7-7.14-17.77-7.32l.29,3h.08A18.06,18.06,0,0,0,350.93,393C360.62,396.84,357.22,384.07,357.22,384.07Zm-6.71,7.39a13.43,13.43,0,0,1-8.26-9.82l-.37-2.34c7.7,0,13.86,5.7,13.86,5.7s2,9.29-5.23,6.46Z" transform="translate(0.01 0)"/><path class="cls-22" d="M343.6,383.32h0c-.25-.29-.32-.66-.17-.82l1.74-1.93c.15-.16.47-.06.71.23h0c.25.29.32.66.17.83l-1.74,1.92C344.16,383.71,343.84,383.61,343.6,383.32Z" transform="translate(0.01 0)"/><path class="cls-23" d="M322.71,373.38h0c-.24-.29-.32-.66-.17-.83l1.75-1.92c.15-.16.47-.06.71.23h0c.24.29.32.66.17.83l-1.75,1.92C323.27,373.77,323,373.67,322.71,373.38Z" transform="translate(0.01 0)"/><path class="cls-17" d="M318.94,360.32s-14.88-10.36-15,14.82a44,44,0,0,0,24.91,39.54c8.95,4.26,19.89-1.2,20.38-9.92,2.13-12.72,2.17-24.62-2-34.86.59-10.51-6.64-6.77-19.15-7.45Z" transform="translate(0.01 0)"/><path class="cls-3" d="M310.43,409.2s-17.21-6.39-15.57-30.6c1.77-26.2,25.87-24,39.26-25.23,5.93-.57,10-1.42,16.13,4,5.52,4.93.35,16-7.57,16.71-3.14.29-1.7,8.75-2.34,11.65-1.12,5.16-4.34,7.69-5.53,12.69-1.12,4.73-8.11,12.16-12.64,12.68C314.08,412,310.43,409.2,310.43,409.2Z" transform="translate(0.01 0)"/><path class="cls-21" d="M357.65,387.57l-22.2,2.13a1.44,1.44,0,0,1-1.57-1.3h0a1.44,1.44,0,0,1,1.3-1.57h0l22.2-2.13A1.46,1.46,0,0,1,359,386v0h0a1.45,1.45,0,0,1-1.3,1.57Z" transform="translate(0.01 0)"/><path class="cls-3" d="M326.28,400.58c-.83.61-2.67,18.13,12.07,15.29s11.76-17.57,11.76-17.57-11.69,3-14.93-11.47S326.28,400.58,326.28,400.58Z" transform="translate(0.01 0)"/><path class="cls-17" d="M338.84,393.34c.36,4.14-1.76,7.71-4.73,8a4.18,4.18,0,0,1-1,0c-2.57-.41-4.74-3.32-5.06-7-.36-4.14,1.76-7.71,4.73-8S338.49,389.19,338.84,393.34Z" transform="translate(0.01 0)"/><path class="cls-13" d="M537.69,221.43h0c-3-1.74-4.54-6.81-2.4-8h0c2.42-1.38,2.42-5.89,0-10.06L534,201.22c-2.42-4.18-6.34-6.45-8.77-5.07h0c-2.13,1.22-5.79-2.63-5.79-6.1h0a13.68,13.68,0,0,0-6.2-10.69l-1.76-1c-3.43-2-6.2-.39-6.2,3.54h0c0,3.47-3.66,3.1-5.8-.59h0c-2.42-4.18-6.35-6.45-8.77-5.07l-1.24.71c-2.43,1.38-2.43,5.89,0,10.06h0c2.13,3.69.62,7-2.41,5.27h0c-3.42-2-6.19-.39-6.19,3.53v2a13.64,13.64,0,0,0,6.19,10.69c3,1.75,4.54,6.82,2.41,8h0c-2.43,1.38-2.43,5.88,0,10.06l1.24,2.15c2.42,4.18,6.35,6.44,8.77,5.06h0c2.14-1.22,5.8,2.63,5.8,6.1h0a13.64,13.64,0,0,0,6.2,10.7l1.76,1c3.42,2,6.2.4,6.2-3.53,0-3.47,3.66-3.1,5.79.59,2.43,4.18,6.35,6.44,8.77,5.06l1.25-.71c2.42-1.38,2.42-5.88,0-10.06h0c-2.14-3.69-.63-7,2.4-5.26h0c3.42,2,6.2.39,6.2-3.54v-2A13.68,13.68,0,0,0,537.69,221.43ZM512.4,232.61c-8.5-4.9-15.39-16.78-15.39-26.54s6.89-13.67,15.39-8.77,15.38,16.79,15.38,26.54-6.88,13.68-15.38,8.77Z" transform="translate(0.01 0)"/><polygon class="cls-14" points="245.7 305.3 298.01 275.1 298.01 215.07 245.7 245.28 245.7 305.3"/><path class="cls-13" d="M256.37,292,290,271.43c.07-7.88-1.45-10.19-3-10.7a4.69,4.69,0,0,0-2.41.12,14.56,14.56,0,0,1-2.55.22,11.48,11.48,0,0,0-1.43.06h0a7,7,0,0,0-1.11.15h-.14l-.56.09h0l-.59-.29s-.26-.2-.28-.12v-.35c0-1,.08-2,.13-3h0a11.62,11.62,0,0,0,1.17-2.59,11.92,11.92,0,0,0,.43-2c1.29-.83,1.7-3,1.9-4.45.16-1.16.45-4-.91-3.17a2.5,2.5,0,0,1,.09-.49,18.67,18.67,0,0,0,.41-2.88,4.14,4.14,0,0,0-.45-2.32c-.12-.19-.3-.34-.53-.23a2,2,0,0,0,.15-.83c0-2.2-1.66-2.37-2.9-2.19a9.88,9.88,0,0,0-5.25,2.48,15.43,15.43,0,0,0-4.28,6.86,3.8,3.8,0,0,0-.18,1.06,2.52,2.52,0,0,0-.35.67,8,8,0,0,0-.56,2.9,11.43,11.43,0,0,0,.3,2.47.81.81,0,0,0,.08.41c-1.11.89-1,3.25-.91,4.18.12,1.32.43,3.17,1.86,2.3a3.49,3.49,0,0,0,1.54,2.86c0,1-.09,1.95-.13,2.92a3.53,3.53,0,0,1,0,.46,3,3,0,0,1-.22.28l-1,1.23-2.12,2.28h0l-1,1.13c-1,1.08-2.14,2.2-3,3a16.4,16.4,0,0,0-2.46,2.74h0c-1.63,2.4-3.36,9.14-3.35,13.13Zm10.2-34.13v-.33a.94.94,0,0,0,0,.29Z" transform="translate(0.01 0)"/><polygon class="cls-14" points="215.18 264.71 238.76 251.09 238.76 259.06 215.18 272.67 215.18 264.71"/><polygon class="cls-14" points="195.01 301.88 239.86 275.99 239.86 268.02 195.01 293.92 195.01 301.88"/><polygon class="cls-14" points="196.11 318.81 240.96 292.91 240.96 284.95 196.11 310.85 196.11 318.81"/><polygon class="cls-24" points="267.95 313.14 320.26 282.94 320.26 222.91 267.95 253.11 267.95 313.14"/><path class="cls-1" d="M671,250.7l-64.6-37.4c-2.66-1.54-5-1.54-6.78-.34h0l-11,6.16a93.65,93.65,0,0,1,7.41,14v58.34c0,7.4,4.59,16,10.14,19.21L658.86,341c4.91,8.26,8.51,13.67,8.51,13.67l10.46-5.87h0c1.66-.8,3.14-4,3.14-8.35V269.9C680.93,262.5,676.52,253.9,671,250.7Z" transform="translate(0.01 0)"/><path class="cls-6" d="M659.91,354.6l-64.78-37.4c-5.55-3.21-10-11.8-10-19.21V227.4c0-7.4,4.5-10.81,10-7.6l64.78,37.4c5.55,3.2,10,11.8,10,19.2V347C670,354.4,665.46,357.8,659.91,354.6Z" transform="translate(0.01 0)"/><path class="cls-13" d="M650.38,292.22h0c-3-1.74-4.54-6.81-2.4-8h0c2.42-1.38,2.42-5.89,0-10.07L646.73,272c-2.42-4.18-6.35-6.45-8.77-5.07h0c-2.14,1.22-5.79-2.63-5.79-6.1h0a13.65,13.65,0,0,0-6.2-10.69l-1.77-1c-3.42-2-6.2-.39-6.2,3.54h0c0,3.47-3.65,3.09-5.79-.6h0c-2.42-4.17-6.35-6.44-8.77-5.06l-1.25.71c-2.42,1.38-2.42,5.89,0,10.06h0c2.14,3.69.63,7-2.4,5.27h0c-3.42-2-6.2-.4-6.2,3.53v2a13.68,13.68,0,0,0,6.2,10.69c3,1.75,4.54,6.82,2.4,8h0c-2.42,1.38-2.42,5.88,0,10.06l1.25,2.15c2.42,4.17,6.35,6.44,8.77,5.06h0c2.14-1.22,5.79,2.63,5.79,6.1h0a13.65,13.65,0,0,0,6.2,10.69l1.77,1c3.42,2,6.2.4,6.2-3.53,0-3.47,3.65-3.1,5.79.59,2.42,4.18,6.35,6.44,8.77,5.06l1.25-.71c2.42-1.38,2.42-5.88,0-10.06h0c-2.14-3.69-.63-7,2.4-5.27h0c3.42,2,6.2.4,6.2-3.53v-2A13.67,13.67,0,0,0,650.38,292.22ZM625.09,303.4c-8.5-4.9-15.39-16.79-15.39-26.54s6.89-13.68,15.39-8.77,15.38,16.79,15.38,26.54S633.58,308.31,625.09,303.4Z" transform="translate(0.01 0)"/><path class="cls-25" d="M665.46,384.53l-64.6-37.4c-2.66-1.53-5-1.54-6.78-.33h0l-11,6.15a93.65,93.65,0,0,1,7.41,14v58.34c0,7.41,4.59,16,10.14,19.21l52.64,30.38c4.91,8.26,8.51,13.66,8.51,13.66l10.46-5.86h0c1.66-.81,3.14-4,3.14-8.36V403.74C675.42,396.33,671,387.74,665.46,384.53Z" transform="translate(0.01 0)"/><path class="cls-10" d="M654.4,488.43,589.62,451c-5.55-3.2-10-11.8-10-19.2V361.2c0-7.4,4.5-10.8,10-7.6L654.4,391c5.55,3.21,10,11.81,10,19.21V480.8C664.45,488.23,660,491.64,654.4,488.43Z" transform="translate(0.01 0)"/><path class="cls-13" d="M644.87,426.06h0c-3-1.75-4.54-6.82-2.4-8h0c2.42-1.38,2.42-5.89,0-10.06l-1.25-2.15c-2.42-4.18-6.35-6.44-8.77-5.06h0c-2.14,1.22-5.79-2.63-5.79-6.1h0a13.71,13.71,0,0,0-6.2-10.7l-1.77-1c-3.42-2-6.2-.39-6.2,3.54h0c0,3.47-3.65,3.1-5.79-.59h0c-2.42-4.18-6.35-6.45-8.77-5.06l-1.25.71c-2.42,1.38-2.42,5.88,0,10.06h0c2.14,3.69.63,7-2.4,5.26h0c-3.42-2-6.2-.39-6.2,3.54v2a13.65,13.65,0,0,0,6.2,10.69c3,1.75,4.54,6.82,2.4,8h0c-2.42,1.38-2.42,5.89,0,10.06l1.25,2.15c2.42,4.18,6.35,6.44,8.77,5.06h0c2.14-1.22,5.79,2.63,5.79,6.1h0a13.71,13.71,0,0,0,6.2,10.7l1.77,1c3.42,2,6.2.39,6.2-3.54,0-3.47,3.65-3.1,5.79.59,2.42,4.18,6.35,6.45,8.77,5.07l1.25-.72c2.42-1.38,2.42-5.88,0-10.06h0c-2.14-3.69-.63-7,2.4-5.26h0c3.42,2,6.2.39,6.2-3.54v-2A13.65,13.65,0,0,0,644.87,426.06Zm-25.29,11.18c-8.5-4.91-15.39-16.79-15.39-26.54s6.89-13.68,15.39-8.78S635,418.71,635,428.46,628.07,442.14,619.58,437.24Z" transform="translate(0.01 0)"/></g></svg>